# xmcd CD database file
#
# Track frame offsets:
#	150
#	19532
#	39343
#	62566
#	83673
#	102832
#	122586
#	144130
#	164765
#	182519
#
# Disc length: 2810 seconds
#
# Revision: 0
# Processed by: cddbd v1.5.2PL0 Copyright (c) Steve Scherf et al.
# Submitted via: CDex 1.51
#
DISCID=710af80a
DTITLE=Ray Castro and Conjunto Clasico  - Si Ella Estuviera 
DYEAR=2006
DGENRE=Salsa
TTITLE0=Ella le Gusta Mi Rumba 
TTITLE1=Si Ella Estuviera 
TTITLE2=Olga y Margara 
TTITLE3=Señora Ley 
TTITLE4=Malcriao 
TTITLE5=Asunto 
TTITLE6=Esta Tarde 
TTITLE7=Dándole 
TTITLE8=Rumba y Caché 
TTITLE9=No Te Metas Conmigo 
EXTD=YEAR: 2006
EXTT0=
EXTT1=
EXTT2=
EXTT3=
EXTT4=
EXTT5=
EXTT6=
EXTT7=
EXTT8=
EXTT9=
PLAYORDER=
